<?xml version="1.0" encoding="UTF-8" standalone="no"?>
<svg
   xmlns:dc="http://purl.org/dc/elements/1.1/"
   xmlns:cc="http://creativecommons.org/ns#"
   xmlns:rdf="http://www.w3.org/1999/02/22-rdf-syntax-ns#"
   xmlns:svg="http://www.w3.org/2000/svg"
   xmlns="http://www.w3.org/2000/svg"
   xmlns:xlink="http://www.w3.org/1999/xlink"
   xmlns:sodipodi="http://sodipodi.sourceforge.net/DTD/sodipodi-0.dtd"
   xmlns:inkscape="http://www.inkscape.org/namespaces/inkscape"
   width="512.0px"
   height="512.0px"
   viewBox="0 0 512.0 512.0"
   version="1.1"
   id="SVGRoot"
   sodipodi:docname="anypalette-logo.svg"
   inkscape:version="1.0.1 (0767f8302a, 2020-10-17)">
  <defs
     id="defs857">
    <inkscape:path-effect
       effect="spiro"
       id="path-effect1459"
       is_visible="true"
       lpeversion="1" />
  </defs>
  <sodipodi:namedview
     id="base"
     pagecolor="#ffffff"
     bordercolor="#666666"
     borderopacity="1.0"
     inkscape:pageopacity="0.0"
     inkscape:pageshadow="2"
     inkscape:zoom="0.98994949"
     inkscape:cx="405.45907"
     inkscape:cy="234.16342"
     inkscape:document-units="px"
     inkscape:current-layer="g1480"
     inkscape:document-rotation="0"
     showgrid="true"
     inkscape:window-width="1848"
     inkscape:window-height="1016"
     inkscape:window-x="72"
     inkscape:window-y="27"
     inkscape:window-maximized="1"
     showguides="false"
     inkscape:guide-bbox="true"
     inkscape:snap-object-midpoints="true"
     inkscape:snap-center="true"
     inkscape:snap-global="true">
    <inkscape:grid
       type="xygrid"
       id="grid1427"
       empspacing="32" />
    <sodipodi:guide
       position="256,256"
       orientation="0,-1"
       id="guide1484" />
    <sodipodi:guide
       position="256,256"
       orientation="1,0"
       id="guide2688" />
  </sodipodi:namedview>
  <metadata
     id="metadata860">
    <rdf:RDF>
      <cc:Work
         rdf:about="">
        <dc:format>image/svg+xml</dc:format>
        <dc:type
           rdf:resource="http://purl.org/dc/dcmitype/StillImage" />
        <dc:title></dc:title>
      </cc:Work>
    </rdf:RDF>
  </metadata>
  <g
     inkscape:label="Layer 1"
     inkscape:groupmode="layer"
     id="layer1">
    <g
       id="g1480"
       inkscape:transform-center-y="-109.48364"
       inkscape:tile-cx="256"
       inkscape:tile-cy="256"
       inkscape:tile-w="152.8738"
       inkscape:tile-h="289.90652"
       inkscape:tile-x0="179.5631"
       inkscape:tile-y0="1.5630971"
       transform="translate(416,-23.507812)">
      <path
         id="path1461"
         style="font-variation-settings:normal;opacity:1;vector-effect:none;fill-opacity:1;stroke:#000000;stroke-width:16;stroke-linecap:butt;stroke-linejoin:miter;stroke-miterlimit:4;stroke-dasharray:none;stroke-dashoffset:0;stroke-opacity:1;stop-color:#000000;stop-opacity:1"
         d="M 224,10.654297 C 214.42046,10.654845 206.65485,18.42046 206.6543,28 204.91212,80.292619 216.6057,132.08318 193.73438,179.73438 331.68985,184.32513 33.642668,46.851444 160,215.50781 L 188.6543,250 c 4.2e-4,6.56959 3.71209,12.57524 9.58789,15.51367 C 224,288 288,288 313.75781,265.51367 c 5.8758,-2.93843 9.58747,-8.94408 9.58789,-15.51367 v -58 c 8e-5,-4.60042 -1.82727,-9.01246 -5.08008,-12.26562 C 293.57736,134.3181 305.3457,78.268796 305.3457,28 305.34515,18.42046 297.57954,10.654845 288,10.654297 Z"
         sodipodi:nodetypes="ccccccccccccc" />
      <path
         id="use1513"
         style="font-variation-settings:normal;vector-effect:none;fill-opacity:1;stroke:#ffffff;stroke-width:16;stroke-linecap:butt;stroke-linejoin:miter;stroke-miterlimit:4;stroke-dasharray:none;stroke-dashoffset:0;stroke-opacity:1;stop-color:#000000"
         d="m 224,25.207031 c -1.71498,9.8e-5 -2.79287,1.077983 -2.79297,2.792969 a 14.554686,14.554686 0 0 1 -0.008,0.484375 c -1.65937,49.807049 11.14491,104.442545 -14.34375,157.546875 a 14.554686,14.554686 0 0 1 -2.83008,3.99414 c -0.52778,0.52783 -0.81837,1.22816 -0.81836,1.97461 v 58 c 7e-5,1.08866 0.57123,2.01111 1.54492,2.49805 a 14.554686,14.554686 0 0 1 3.06055,2.05273 c 8.3804,7.31601 28.17865,13.27344 48.1875,13.27344 20.00885,0 39.8071,-5.95743 48.1875,-13.27344 a 14.554686,14.554686 0 0 1 3.06055,-2.05273 c 0.97369,-0.48694 1.54485,-1.40939 1.54492,-2.49805 v -58 c 10e-6,-0.74645 -0.29058,-1.44678 -0.81836,-1.97461 a 14.554686,14.554686 0 0 1 -2.49609,-3.33984 C 277.4639,135.15012 290.79297,75.997442 290.79297,28 290.79287,26.285014 289.71498,25.207129 288,25.207031 Z" />
    </g>
    <use
       x="0"
       y="0"
       inkscape:tiled-clone-of="#g1480"
       xlink:href="#g1480"
       fill="#ff0000"
       stroke="#ff0000"
       id="use2670"
       inkscape:transform-center-y="-109.48364"
       width="100%"
       height="100%"
       transform="translate(-416,23.507812)" />
    <use
       x="0"
       y="0"
       inkscape:tiled-clone-of="#g1480"
       xlink:href="#g1480"
       transform="rotate(72,447.82214,-42.041265)"
       fill="#ccff00"
       stroke="#ccff00"
       id="use2672"
       inkscape:transform-center-x="-106.44575"
       inkscape:transform-center-y="-27.597594"
       width="100%"
       height="100%" />
    <use
       x="0"
       y="0"
       inkscape:tiled-clone-of="#g1480"
       xlink:href="#g1480"
       transform="rotate(144,460.18092,176.66278)"
       fill="#00ff66"
       stroke="#00ff66"
       id="use2674"
       inkscape:transform-center-x="-61.490337"
       inkscape:transform-center-y="89.365342"
       width="100%"
       height="100%" />
    <use
       x="0"
       y="0"
       inkscape:tiled-clone-of="#g1480"
       xlink:href="#g1480"
       transform="rotate(-144,467.81908,311.8294)"
       fill="#0066ff"
       stroke="#0066ff"
       id="use2676"
       inkscape:transform-center-x="61.490337"
       inkscape:transform-center-y="89.365342"
       width="100%"
       height="100%" />
    <use
       x="0"
       y="0"
       inkscape:tiled-clone-of="#g1480"
       xlink:href="#g1480"
       transform="rotate(-72,480.17786,530.53345)"
       fill="#cc00ff"
       stroke="#cc00ff"
       id="use2678"
       inkscape:transform-center-x="106.44575"
       inkscape:transform-center-y="-27.597594"
       width="100%"
       height="100%" />
    <circle
       style="fill:#3a2264;stroke:#000000;stroke-width:16;stroke-opacity:1;stop-color:#000000"
       id="path2680"
       cx="256"
       cy="256"
       r="32" />
    <path
       style="font-variation-settings:normal;opacity:1;vector-effect:none;fill:#c8a9fa;fill-opacity:1;stroke:none;stroke-width:49.9997;stroke-linecap:butt;stroke-linejoin:miter;stroke-miterlimit:4;stroke-dasharray:none;stroke-dashoffset:0;stroke-opacity:1;stop-color:#000000;stop-opacity:1"
       d="m 259.03218,231.87533 c 3.74132,3.29164 -20.02453,21.1184 -17.67929,35.0742 0.5904,2.00594 0.93313,2.89164 -1.19554,2.8969 -3.74684,-0.91856 -6.86366,-9.80651 -7.30182,-14.55128 -1.37476,-14.88699 16.79503,-26.21269 26.17665,-23.41982 z"
       id="path2684"
       sodipodi:nodetypes="cccsc" />
  </g>
</svg>
