<?xml version="1.0" encoding="UTF-8" standalone="no"?>
<svg
   xmlns:dc="http://purl.org/dc/elements/1.1/"
   xmlns:cc="http://creativecommons.org/ns#"
   xmlns:rdf="http://www.w3.org/1999/02/22-rdf-syntax-ns#"
   xmlns:svg="http://www.w3.org/2000/svg"
   xmlns="http://www.w3.org/2000/svg"
   xmlns:xlink="http://www.w3.org/1999/xlink"
   xmlns:sodipodi="http://sodipodi.sourceforge.net/DTD/sodipodi-0.dtd"
   xmlns:inkscape="http://www.inkscape.org/namespaces/inkscape"
   width="512.0px"
   height="512.0px"
   viewBox="0 0 512.0 512.0"
   version="1.1"
   id="SVGRoot"
   sodipodi:docname="anypalette-logo.svg"
   inkscape:version="1.0.1 (0767f8302a, 2020-10-17)">
  <defs
     id="defs857">
    <inkscape:path-effect
       effect="spiro"
       id="path-effect1459"
       is_visible="true"
       lpeversion="1" />
  </defs>
  <sodipodi:namedview
     id="base"
     pagecolor="#ffffff"
     bordercolor="#666666"
     borderopacity="1.0"
     inkscape:pageopacity="0.0"
     inkscape:pageshadow="2"
     inkscape:zoom="0.7"
     inkscape:cx="236.30348"
     inkscape:cy="140.20401"
     inkscape:document-units="px"
     inkscape:current-layer="layer1"
     inkscape:document-rotation="0"
     showgrid="false"
     inkscape:window-width="1848"
     inkscape:window-height="1016"
     inkscape:window-x="72"
     inkscape:window-y="27"
     inkscape:window-maximized="1"
     showguides="false"
     inkscape:guide-bbox="true"
     inkscape:snap-object-midpoints="true"
     inkscape:snap-center="true"
     inkscape:snap-global="true">
    <inkscape:grid
       type="xygrid"
       id="grid1427"
       empspacing="32" />
    <sodipodi:guide
       position="256,256"
       orientation="0,-1"
       id="guide1484" />
    <sodipodi:guide
       position="256,256"
       orientation="1,0"
       id="guide2688" />
  </sodipodi:namedview>
  <metadata
     id="metadata860">
    <rdf:RDF>
      <cc:Work
         rdf:about="">
        <dc:format>image/svg+xml</dc:format>
        <dc:type
           rdf:resource="http://purl.org/dc/dcmitype/StillImage" />
        <dc:title></dc:title>
      </cc:Work>
    </rdf:RDF>
  </metadata>
  <g
     inkscape:label="Layer 1"
     inkscape:groupmode="layer"
     id="layer1">
    <g
       id="g1480"
       inkscape:transform-center-y="-109.48364"
       inkscape:tile-cx="256"
       inkscape:tile-cy="256"
       inkscape:tile-w="152.8738"
       inkscape:tile-h="289.90652"
       inkscape:tile-x0="179.5631"
       inkscape:tile-y0="1.5630971"
       transform="translate(416,-23.507812)">
      <path
         id="path1461"
         style="font-variation-settings:normal;opacity:1;vector-effect:none;fill-opacity:1;stroke:#000000;stroke-width:16;stroke-linecap:butt;stroke-linejoin:miter;stroke-miterlimit:4;stroke-dasharray:none;stroke-dashoffset:0;stroke-opacity:1;stop-color:#000000;stop-opacity:1"
         d="M 224,10.654297 C 214.42046,10.654845 206.65485,18.42046 206.6543,28 204.91051,80.292212 69.470394,94.91437 193.73438,179.73438 334.09659,186.54204 208.10053,207.54843 160,215.50781 L 188.6543,250 c 4.2e-4,6.56959 3.71209,12.57524 9.58789,15.51367 C 224,288 288,288 313.75781,265.51367 c 5.8758,-2.93843 9.58747,-8.94408 9.58789,-15.51367 v -58 c 8e-5,-4.60042 -1.82727,-9.01246 -5.08008,-12.26562 C 293.57736,134.3181 305.3457,78.268796 305.3457,28 305.34515,18.42046 297.57954,10.654845 288,10.654297 Z"
         sodipodi:nodetypes="ccccccccccccc" />
      <path
         id="use1513"
         style="font-variation-settings:normal;vector-effect:none;fill-opacity:1;stroke:#ffffff;stroke-width:16;stroke-linecap:butt;stroke-linejoin:miter;stroke-miterlimit:4;stroke-dasharray:none;stroke-dashoffset:0;stroke-opacity:1;stop-color:#000000"
         d="m 224,25.207031 c -1.71498,9.8e-5 -2.79287,1.077983 -2.79297,2.792969 2e-5,0.161492 -0.003,0.322972 -0.008,0.484375 31.36517,334.465055 -119.97673,174.005295 34.80078,239.339845 20.00885,0 39.8071,-5.95743 48.1875,-13.27344 0.92909,-0.81115 1.95751,-1.50093 3.06055,-2.05273 0.97369,-0.48694 1.54485,-1.40939 1.54492,-2.49805 v -58 c 1e-5,-0.74645 -0.29058,-1.44678 -0.81836,-1.97461 -0.98801,-0.98772 -1.82866,-2.11253 -2.49609,-3.33984 C 277.4639,135.15012 290.79297,75.997442 290.79297,28 290.79287,26.285014 289.71498,25.207129 288,25.207031 Z"
         sodipodi:nodetypes="csccssccccscc" />
    </g>
    <use
       x="0"
       y="0"
       inkscape:tiled-clone-of="#g1480"
       xlink:href="#g1480"
       fill="#ff0000"
       stroke="#ff0000"
       id="use2670"
       inkscape:transform-center-y="-109.48364"
       width="100%"
       height="100%"
       transform="translate(-416,23.507812)" />
    <use
       x="0"
       y="0"
       inkscape:tiled-clone-of="#g1480"
       xlink:href="#g1480"
       transform="rotate(72,447.82214,-42.041265)"
       fill="#ccff00"
       stroke="#ccff00"
       id="use2672"
       inkscape:transform-center-x="-106.44575"
       inkscape:transform-center-y="-27.597594"
       width="100%"
       height="100%"
       style="fill:#ffff00" />
    <use
       x="0"
       y="0"
       inkscape:tiled-clone-of="#g1480"
       xlink:href="#g1480"
       transform="rotate(144,460.18092,176.66278)"
       fill="#00ff66"
       stroke="#00ff66"
       id="use2674"
       inkscape:transform-center-x="-61.490337"
       inkscape:transform-center-y="89.365342"
       width="100%"
       height="100%" />
    <use
       x="0"
       y="0"
       inkscape:tiled-clone-of="#g1480"
       xlink:href="#g1480"
       transform="rotate(-144,467.81908,311.8294)"
       fill="#0066ff"
       stroke="#0066ff"
       id="use2676"
       inkscape:transform-center-x="61.490337"
       inkscape:transform-center-y="89.365342"
       width="100%"
       height="100%" />
    <use
       x="0"
       y="0"
       inkscape:tiled-clone-of="#g1480"
       xlink:href="#g1480"
       transform="rotate(-72,480.17786,530.53345)"
       fill="#cc00ff"
       stroke="#cc00ff"
       id="use2678"
       inkscape:transform-center-x="106.44575"
       inkscape:transform-center-y="-27.597594"
       width="100%"
       height="100%"
       style="fill:#ff2ad4" />
    <circle
       style="fill:#3a2264;stroke:#000000;stroke-width:16;stroke-opacity:1;stop-color:#000000"
       id="path2680"
       cx="256"
       cy="256"
       r="32" />
    <path
       style="font-variation-settings:normal;opacity:1;vector-effect:none;fill:#c8a9fa;fill-opacity:1;stroke:none;stroke-width:49.9997;stroke-linecap:butt;stroke-linejoin:miter;stroke-miterlimit:4;stroke-dasharray:none;stroke-dashoffset:0;stroke-opacity:1;stop-color:#000000;stop-opacity:1"
       d="m 259.03218,231.87533 c 3.74132,3.29164 -20.02453,21.1184 -17.67929,35.0742 0.5904,2.00594 0.93313,2.89164 -1.19554,2.8969 -3.74684,-0.91856 -6.86366,-9.80651 -7.30182,-14.55128 -1.37476,-14.88699 16.79503,-26.21269 26.17665,-23.41982 z"
       id="path2684"
       sodipodi:nodetypes="cccsc" />
    <path
       style="fill:#ff0066;stroke:none;stroke-width:16;stroke-opacity:1;stop-color:#000000"
       d="m 174.78939,166.24622 c -0.78571,-0.30541 -5.77373,-0.97673 -11.08449,-1.49182 -10.79847,-1.04735 -13.91551,-3.14839 -13.91551,-9.37979 v -4.18367 h 9.07328 c 8.605,0 39.35629,6.75108 44.91086,9.85965 2.16585,1.2121 2.03741,1.52221 -1.12699,2.72102 -3.85801,1.46158 -25.51414,3.38534 -27.85715,2.47461 z"
       id="path2693" />
    <path
       style="fill:#6600ff;stroke:none;stroke-width:16;stroke-opacity:1;stop-color:#000000"
       d="m 125.86082,325.95911 c -2.58485,-1.04301 -2.14472,-5.9812 1.18797,-13.32868 3.72502,-8.21246 19.31498,-33.475 22.06801,-35.75981 1.72389,-1.4307 3.44152,-0.59601 9.60034,4.66531 8.08822,6.90956 19.58355,11.71763 41.7451,17.46044 l 12.8157,3.32098 -5.58045,2.33166 c -12.64205,5.28219 -52.23719,17.9816 -62.49073,20.04275 -11.16713,2.24481 -16.11952,2.56924 -19.34594,1.26735 z"
       id="path2695" />
    <path
       style="fill:#d6a206;stroke:none;stroke-width:16;stroke-opacity:1;stop-color:#000000"
       d="m 273.13776,398.52541 c -5.41851,-3.92515 -24.3973,-25.21814 -29.49857,-33.09551 l -2.34308,-3.61819 8.17521,-4.86465 c 4.49637,-2.67556 8.81807,-5.61548 9.60379,-6.53314 5.76832,-6.73707 18.50064,-24.20985 22.5556,-30.95343 l 4.90608,-8.15902 0.91201,8.72572 c 1.38909,13.29003 1.03473,53.49469 -0.56929,64.59167 -1.48341,10.26257 -3.864,16.72392 -6.47363,17.57062 -0.8395,0.27237 -4.11016,-1.37646 -7.26812,-3.66407 z"
       id="path2699" />
    <path
       style="fill:#ff6600;stroke:none;stroke-width:16;stroke-opacity:1;stop-color:#000000"
       d="m 275.91612,182.81216 -4.58756,-2.35524 12.23842,-17.13299 c 19.73149,-27.62283 34.5348,-42.79895 39.03473,-40.01784 3.84722,2.37771 9.67141,40.82334 7.68729,50.74395 l -0.87182,4.35913 -11.59961,-0.15924 c -8.86382,-0.12169 -14.29505,0.70669 -23.02818,3.5123 -13.08348,4.20321 -12.76572,4.18553 -18.87327,1.04993 z"
       id="path2701" />
    <path
       style="fill:#800080;stroke:none;stroke-width:16;stroke-opacity:1;stop-color:#000000"
       d="m 208.36082,283.20749 c -19.75256,-5.23187 -33.71216,-10.83827 -39.28571,-15.77776 l -5.71429,-5.06421 7.14286,-6.29543 c 19.13838,-16.86782 44.9402,-32.26772 57.39757,-34.25794 l 5.96901,-0.95362 -6.83022,7.08623 c -13.73937,14.25435 -15.42131,33.48421 -4.44281,50.79549 l 4.2721,6.7364 -5.32568,-0.094 c -2.92913,-0.0517 -8.8614,-1.03053 -13.18283,-2.17515 z"
       id="path2703" />
    <path
       style="fill:#abc837;stroke:none;stroke-width:16;stroke-opacity:1;stop-color:#000000"
       d="m 351.39799,299.50114 c -0.68791,-1.82061 -1.7186,-6.09797 -2.29042,-9.50525 -1.13771,-6.77934 -8.69709,-18.79083 -22.5252,-35.79149 -9.97513,-12.2637 -11.7383,-11.98824 18.68599,-2.91933 33.31804,9.93148 55.99796,20.22258 57.09247,25.90591 0.66933,3.47552 -11.82379,11.25017 -29.00001,18.04712 -20.66397,8.17712 -20.49619,8.14455 -21.96283,4.26304 z"
       id="path2705" />
    <path
       style="fill:#225500;stroke:none;stroke-width:16;stroke-opacity:1;stop-color:#000000"
       d="m 316.18214,303.69094 c 2.83712,-9.01389 2.42451,-18.95172 -1.19893,-28.87621 -1.99754,-5.47119 -3.41121,-10.16831 -3.14149,-10.43802 0.79183,-0.79183 16.71205,21.41264 18.71321,26.09994 1.00635,2.35714 2.26384,6.60168 2.79443,9.4323 l 0.96472,5.14659 -6.74744,0.92484 c -11.45509,1.5701 -12.53117,1.35369 -11.3845,-2.28944 z"
       id="path2707" />
    <path
       style="fill:#00ffcc;stroke:none;stroke-width:16;stroke-opacity:1;stop-color:#000000"
       d="m 274.05799,397.78747 c -6.35127,-4.35267 -32.72139,-34.48004 -31.25613,-35.70954 0.30743,-0.25796 4.24975,-2.80147 8.76072,-5.65225 6.1578,-3.89151 10.92281,-8.8388 19.12043,-19.85184 6.00527,-8.06774 11.57838,-16.11505 12.38469,-17.8829 0.80631,-1.76786 2.05371,-3.21429 2.77199,-3.21429 0.76878,0 1.0885,15.13104 0.77727,36.78572 -0.524,36.45967 -1.86671,47.07526 -6.1304,48.46781 -0.79513,0.25969 -3.68799,-1.06452 -6.42857,-2.94271 z"
       id="path2709" />
    <path
       style="fill:#d4aa00;stroke:none;stroke-width:16;stroke-opacity:1;stop-color:#000000"
       d="m 316.80088,211.7452 c -3.00246,-3.62032 -10.40699,-6.26855 -17.52705,-6.26855 -4.24937,0 -6.58626,-0.68967 -7.12896,-2.10392 -1.12942,-2.94323 15.40903,-7.89608 26.36643,-7.89608 9.40981,0 9.32693,-0.13629 6.51475,10.71262 -1.98288,7.64965 -4.87091,9.60045 -8.22517,5.55593 z"
       id="path2711" />
    <path
       style="fill:#008080;stroke:none;stroke-width:16;stroke-opacity:1;stop-color:#000000"
       d="m 229.50589,337.55529 c -1.83414,-4.50855 -3.06592,-8.46623 -2.7373,-8.79486 0.32863,-0.32862 3.92222,-0.91507 7.98577,-1.30322 8.94935,-0.85483 13.1889,-2.90006 23.84504,-11.50324 4.44523,-3.58883 8.08223,-6.13879 8.08223,-5.66657 0,1.01212 -11.89509,17.95715 -16.85597,24.012 -2.92676,3.57216 -14.14249,11.45325 -16.29935,11.45325 -0.3771,0 -2.18629,-3.68881 -4.02042,-8.19736 z"
       id="path2715" />
  </g>
</svg>
