<?xml version="1.0" encoding="UTF-8" standalone="no"?>
<svg
   xmlns:dc="http://purl.org/dc/elements/1.1/"
   xmlns:cc="http://creativecommons.org/ns#"
   xmlns:rdf="http://www.w3.org/1999/02/22-rdf-syntax-ns#"
   xmlns:svg="http://www.w3.org/2000/svg"
   xmlns="http://www.w3.org/2000/svg"
   xmlns:xlink="http://www.w3.org/1999/xlink"
   xmlns:sodipodi="http://sodipodi.sourceforge.net/DTD/sodipodi-0.dtd"
   xmlns:inkscape="http://www.inkscape.org/namespaces/inkscape"
   width="512.0px"
   height="512.0px"
   viewBox="0 0 512.0 512.0"
   version="1.1"
   id="SVGRoot"
   sodipodi:docname="anypalette-logo.svg"
   inkscape:version="1.0.1 (0767f8302a, 2020-10-17)">
  <defs
     id="defs857">
    <inkscape:path-effect
       effect="spiro"
       id="path-effect1459"
       is_visible="true"
       lpeversion="1" />
  </defs>
  <sodipodi:namedview
     id="base"
     pagecolor="#ffffff"
     bordercolor="#666666"
     borderopacity="1.0"
     inkscape:pageopacity="0.0"
     inkscape:pageshadow="2"
     inkscape:zoom="1.4"
     inkscape:cx="125.8732"
     inkscape:cy="239.74378"
     inkscape:document-units="px"
     inkscape:current-layer="g1480"
     inkscape:document-rotation="0"
     showgrid="true"
     inkscape:window-width="1848"
     inkscape:window-height="1016"
     inkscape:window-x="72"
     inkscape:window-y="27"
     inkscape:window-maximized="1"
     showguides="true"
     inkscape:guide-bbox="true"
     inkscape:snap-object-midpoints="true"
     inkscape:snap-center="true">
    <inkscape:grid
       type="xygrid"
       id="grid1427"
       empspacing="32" />
    <sodipodi:guide
       position="256,256"
       orientation="0,-1"
       id="guide1484" />
  </sodipodi:namedview>
  <metadata
     id="metadata860">
    <rdf:RDF>
      <cc:Work
         rdf:about="">
        <dc:format>image/svg+xml</dc:format>
        <dc:type
           rdf:resource="http://purl.org/dc/dcmitype/StillImage" />
        <dc:title></dc:title>
      </cc:Work>
    </rdf:RDF>
  </metadata>
  <g
     inkscape:label="Layer 1"
     inkscape:groupmode="layer"
     id="layer1">
    <path
       sodipodi:type="star"
       style="fill:#ffffff;stroke-width:10.1788;stroke-opacity:0.973825;stop-color:#000000;stroke:#000000"
       id="path1434"
       sodipodi:sides="5"
       sodipodi:cx="256"
       sodipodi:cy="256"
       sodipodi:r1="224"
       sodipodi:r2="109.76"
       sodipodi:arg1="-1.5707963"
       sodipodi:arg2="-0.94247777"
       inkscape:flatsided="false"
       inkscape:rounded="0.56"
       inkscape:randomized="0"
       d="m 256.00001,32 c 83.89145,2e-6 -3.3543,85.89214 64.5153,135.20229 67.86961,49.31016 122.59747,-60.2076 148.52135,19.57791 25.92388,79.78551 -82.72481,23.352 -108.6487,103.13751 -25.92388,79.78551 95.14554,97.99195 27.27593,147.3021 C 319.79428,486.52997 339.89145,365.76 256,365.76 c -83.89145,0 -63.79429,120.76996 -131.6639,71.4598 C 56.466492,387.90964 177.53592,369.70321 151.61203,289.9177 125.68815,210.13219 17.039457,266.5657 42.963342,186.78019 68.887228,106.99468 123.61508,216.51245 191.48469,167.20229 259.3543,117.89214 172.10856,31.999998 256.00001,32 Z" />
    <use
       x="0"
       y="0"
       xlink:href="#g1480"
       inkscape:transform-center-y="-19.392922"
       id="use1486"
       transform="rotate(72,256,256)"
       width="100%"
       height="100%"
       inkscape:transform-center-x="-96.245726" />
    <use
       x="0"
       y="0"
       xlink:href="#g1480"
       inkscape:transform-center-y="81.205137"
       id="use1488"
       transform="rotate(144,256,256)"
       width="100%"
       height="100%"
       inkscape:transform-center-x="-52.887529" />
    <use
       x="0"
       y="0"
       xlink:href="#g1480"
       inkscape:transform-center-y="81.205137"
       id="use1490"
       transform="rotate(-144,256,256)"
       width="100%"
       height="100%"
       inkscape:transform-center-x="52.88753" />
    <use
       x="0"
       y="0"
       xlink:href="#g1480"
       inkscape:transform-center-y="-19.392922"
       id="use1492"
       transform="rotate(-72,256,256)"
       width="100%"
       height="100%"
       inkscape:transform-center-x="96.245727" />
    <g
       id="g1480"
       inkscape:transform-center-y="-96.00055">
      <path
         id="path1461"
         style="font-variation-settings:normal;opacity:1;vector-effect:none;fill:#df7126;fill-opacity:1;stroke:#000000;stroke-width:18.1824;stroke-linecap:butt;stroke-linejoin:miter;stroke-miterlimit:4;stroke-dasharray:none;stroke-dashoffset:0;stroke-opacity:1;stop-color:#000000;stop-opacity:1"
         d="M 224,10.654297 C 214.42046,10.654845 206.65485,18.42046 206.6543,28 v 124.81641 l -12.91992,26.91797 c -3.25281,3.25316 -5.08016,7.6652 -5.08008,12.26562 v 58 c 4.2e-4,6.56959 3.71209,12.57524 9.58789,15.51367 l 50,14 c 4.88364,2.44187 10.63198,2.44187 15.51562,0 l 50,-14 c 5.8758,-2.93843 9.58747,-8.94408 9.58789,-15.51367 v -58 c 8e-5,-4.60042 -1.82727,-9.01246 -5.08008,-12.26562 L 305.3457,152.81641 V 28 C 305.34515,18.42046 297.57954,10.654845 288,10.654297 Z"
         sodipodi:nodetypes="ccccccccccccccccc" />
    </g>
  </g>
</svg>
