<?xml version="1.0" encoding="UTF-8" standalone="no"?>
<svg
   xmlns:dc="http://purl.org/dc/elements/1.1/"
   xmlns:cc="http://creativecommons.org/ns#"
   xmlns:rdf="http://www.w3.org/1999/02/22-rdf-syntax-ns#"
   xmlns:svg="http://www.w3.org/2000/svg"
   xmlns="http://www.w3.org/2000/svg"
   xmlns:xlink="http://www.w3.org/1999/xlink"
   xmlns:sodipodi="http://sodipodi.sourceforge.net/DTD/sodipodi-0.dtd"
   xmlns:inkscape="http://www.inkscape.org/namespaces/inkscape"
   width="512.0px"
   height="512.0px"
   viewBox="0 0 512.0 512.0"
   version="1.1"
   id="SVGRoot"
   sodipodi:docname="anypalette-logo.svg"
   inkscape:version="1.0.1 (0767f8302a, 2020-10-17)">
  <defs
     id="defs857">
    <inkscape:path-effect
       effect="spiro"
       id="path-effect1459"
       is_visible="true"
       lpeversion="1" />
  </defs>
  <sodipodi:namedview
     id="base"
     pagecolor="#ffffff"
     bordercolor="#666666"
     borderopacity="1.0"
     inkscape:pageopacity="0.0"
     inkscape:pageshadow="2"
     inkscape:zoom="0.7"
     inkscape:cx="458.88485"
     inkscape:cy="53.900406"
     inkscape:document-units="px"
     inkscape:current-layer="g1480"
     inkscape:document-rotation="0"
     showgrid="false"
     inkscape:window-width="1848"
     inkscape:window-height="1016"
     inkscape:window-x="72"
     inkscape:window-y="27"
     inkscape:window-maximized="1"
     showguides="false"
     inkscape:guide-bbox="true"
     inkscape:snap-object-midpoints="true"
     inkscape:snap-center="true"
     inkscape:snap-global="true">
    <inkscape:grid
       type="xygrid"
       id="grid1427"
       empspacing="32" />
    <sodipodi:guide
       position="256,256"
       orientation="0,-1"
       id="guide1484" />
    <sodipodi:guide
       position="256,256"
       orientation="1,0"
       id="guide2688" />
  </sodipodi:namedview>
  <metadata
     id="metadata860">
    <rdf:RDF>
      <cc:Work
         rdf:about="">
        <dc:format>image/svg+xml</dc:format>
        <dc:type
           rdf:resource="http://purl.org/dc/dcmitype/StillImage" />
        <dc:title></dc:title>
      </cc:Work>
    </rdf:RDF>
  </metadata>
  <g
     inkscape:label="Layer 1"
     inkscape:groupmode="layer"
     id="layer1">
    <g
       id="g1480"
       inkscape:transform-center-y="-109.48364"
       inkscape:tile-cx="256"
       inkscape:tile-cy="256"
       inkscape:tile-w="152.8738"
       inkscape:tile-h="289.90652"
       inkscape:tile-x0="179.5631"
       inkscape:tile-y0="1.5630971"
       transform="translate(416,-23.507812)">
      <path
         id="path1461"
         style="font-variation-settings:normal;opacity:1;vector-effect:none;fill-opacity:1;stroke:#000000;stroke-width:16;stroke-linecap:butt;stroke-linejoin:miter;stroke-miterlimit:4;stroke-dasharray:none;stroke-dashoffset:0;stroke-opacity:1;stop-color:#000000;stop-opacity:1"
         d="m 232.81652,10.653564 c -9.57954,5.48e-4 -17.34515,7.766163 -17.3457,17.345703 -0.46677,5.501398 -36.90748,90.751743 -12.91992,151.734383 140.36221,6.80766 -23.13225,8.14604 -71.23278,16.10542 l 66.1527,54.1602 c 4.2e-4,6.56959 3.71209,12.57524 9.58789,15.51367 25.75781,22.48633 89.75781,22.48633 115.51562,0 5.8758,-2.93843 9.58747,-8.94408 9.58789,-15.51367 v -58 c 8e-5,-4.60042 -1.82727,-9.01246 -5.08008,-12.26562 -24.68826,-45.41628 -12.91992,-101.465587 -12.91992,-151.734383 -5.5e-4,-9.57954 -7.76616,-17.345155 -17.3457,-17.345703 z"
         sodipodi:nodetypes="ccccccccccccc" />
      <path
         id="use1513"
         style="font-variation-settings:normal;vector-effect:none;fill-opacity:1;stroke:#ffffff;stroke-width:16;stroke-linecap:butt;stroke-linejoin:miter;stroke-miterlimit:4;stroke-dasharray:none;stroke-dashoffset:0;stroke-opacity:1;stop-color:#000000"
         d="m 224,25.207031 c -3.1401,0.890465 141.93673,141.393459 -4.39199,6.433397 4.78264,-27.5728779 -65.03414,152.925632 36.3918,236.183792 20.00885,0 39.8071,-5.95743 48.1875,-13.27344 0.92909,-0.81115 1.95751,-1.50093 3.06055,-2.05273 0.97369,-0.48694 1.54485,-1.40939 1.54492,-2.49805 v -58 c 1e-5,-0.74645 -0.29058,-1.44678 -0.81836,-1.97461 -0.98801,-0.98772 -1.82866,-2.11253 -2.49609,-3.33984 C 277.4639,135.15012 290.79297,75.997442 290.79297,28 290.79287,26.285014 289.71498,25.207129 288,25.207031 Z"
         sodipodi:nodetypes="cccssccccscc" />
    </g>
    <use
       x="0"
       y="0"
       inkscape:tiled-clone-of="#g1480"
       xlink:href="#g1480"
       fill="#ff0000"
       stroke="#ff0000"
       id="use2670"
       inkscape:transform-center-y="-109.48364"
       width="100%"
       height="100%"
       transform="translate(-416,23.507812)" />
    <use
       x="0"
       y="0"
       inkscape:tiled-clone-of="#g1480"
       xlink:href="#g1480"
       transform="rotate(72,447.82214,-42.041265)"
       fill="#ccff00"
       stroke="#ccff00"
       id="use2672"
       inkscape:transform-center-x="-106.44575"
       inkscape:transform-center-y="-27.597594"
       width="100%"
       height="100%"
       style="fill:#ffff00" />
    <use
       x="0"
       y="0"
       inkscape:tiled-clone-of="#g1480"
       xlink:href="#g1480"
       transform="rotate(144,460.18092,176.66278)"
       fill="#00ff66"
       stroke="#00ff66"
       id="use2674"
       inkscape:transform-center-x="-61.490337"
       inkscape:transform-center-y="89.365342"
       width="100%"
       height="100%" />
    <use
       x="0"
       y="0"
       inkscape:tiled-clone-of="#g1480"
       xlink:href="#g1480"
       transform="rotate(-144,467.81908,311.8294)"
       fill="#0066ff"
       stroke="#0066ff"
       id="use2676"
       inkscape:transform-center-x="61.490337"
       inkscape:transform-center-y="89.365342"
       width="100%"
       height="100%" />
    <use
       x="0"
       y="0"
       inkscape:tiled-clone-of="#g1480"
       xlink:href="#g1480"
       transform="rotate(-72,480.17786,530.53345)"
       fill="#cc00ff"
       stroke="#cc00ff"
       id="use2678"
       inkscape:transform-center-x="106.44575"
       inkscape:transform-center-y="-27.597594"
       width="100%"
       height="100%"
       style="fill:#ff2ad4" />
    <circle
       style="fill:#3a2264;stroke:#000000;stroke-width:16;stroke-opacity:1;stop-color:#000000"
       id="path2680"
       cx="256"
       cy="256"
       r="32" />
    <path
       style="font-variation-settings:normal;opacity:1;vector-effect:none;fill:#c8a9fa;fill-opacity:1;stroke:none;stroke-width:49.9997;stroke-linecap:butt;stroke-linejoin:miter;stroke-miterlimit:4;stroke-dasharray:none;stroke-dashoffset:0;stroke-opacity:1;stop-color:#000000;stop-opacity:1"
       d="m 259.03218,231.87533 c 3.74132,3.29164 -20.02453,21.1184 -17.67929,35.0742 0.5904,2.00594 0.93313,2.89164 -1.19554,2.8969 -3.74684,-0.91856 -6.86366,-9.80651 -7.30182,-14.55128 -1.37476,-14.88699 16.79503,-26.21269 26.17665,-23.41982 z"
       id="path2684"
       sodipodi:nodetypes="cccsc" />
    <path
       style="fill:#ff0066;stroke:none;stroke-width:16;stroke-opacity:1;stop-color:#000000"
       d="m 138.02617,124.11923 c -0.78571,-0.30541 -5.77373,-0.97673 -11.08449,-1.49182 -10.79847,-1.04735 -13.91551,-3.14839 -13.91551,-9.37979 v -4.18367 l 35.91395,-38.447691 c 5.87392,-6.288328 12.51562,45.198771 18.07019,48.307341 2.16585,1.2121 2.03741,1.52221 -1.12699,2.72102 -3.85801,1.46158 -25.51414,3.38534 -27.85715,2.47461 z"
       id="path2693"
       sodipodi:nodetypes="ssscssss" />
    <path
       style="fill:#6600ff;stroke:none;stroke-width:16;stroke-opacity:1;stop-color:#000000"
       d="m 30.192136,336.62744 c -2.58485,-1.04301 -2.14472,-5.9812 1.18797,-13.32868 3.72502,-8.21246 19.31498,-33.475 22.06801,-35.75981 1.72389,-1.4307 3.44152,-0.59601 9.60034,4.66531 8.08822,6.90956 19.58355,11.71763 41.745104,17.46044 l 12.8157,3.32098 -5.58045,2.33166 c -12.642054,5.28219 -52.237194,17.9816 -62.490734,20.04275 -11.16713,2.24481 -16.11952,2.56924 -19.34594,1.26735 z"
       id="path2695" />
    <path
       style="fill:#ff6600;stroke:none;stroke-width:16;stroke-opacity:1;stop-color:#000000"
       d="m 321.82406,109.62979 -4.58756,-2.35524 12.23842,-17.132993 c 19.73149,-27.62283 34.5348,-42.79895 39.03473,-40.01784 3.84722,2.37771 9.67141,40.82334 7.68729,50.743953 l -0.87182,4.35913 -11.59961,-0.15924 c -8.86382,-0.12169 -14.29505,0.70669 -23.02818,3.5123 -13.08348,4.20321 -12.76572,4.18553 -18.87327,1.04993 z"
       id="path2701" />
    <path
       style="fill:#abc837;stroke:none;stroke-width:16;stroke-opacity:1;stop-color:#000000"
       d="m 445.51891,353.20658 c -0.68791,-1.82061 -1.7186,-6.09797 -2.29042,-9.50525 -1.13771,-6.77934 -8.69709,-18.79083 -22.5252,-35.79149 -9.97513,-12.2637 -11.7383,-11.98824 18.68599,-2.91933 33.31804,9.93148 55.99796,20.22258 57.09247,25.90591 0.66933,3.47552 -11.82379,11.25017 -29.00001,18.04712 -20.66397,8.17712 -20.49619,8.14455 -21.96283,4.26304 z"
       id="path2705" />
    <path
       style="fill:#00ffcc;stroke:none;stroke-width:16;stroke-opacity:1;stop-color:#000000"
       d="m 283.22713,483.30391 c -6.35127,-4.35267 -32.72139,-34.48004 -31.25613,-35.70954 0.30743,-0.25796 4.24975,-2.80147 8.76072,-5.65225 6.1578,-3.89151 10.92281,-8.8388 19.12043,-19.85184 6.00527,-8.06774 11.57838,-16.11505 12.38469,-17.8829 0.80631,-1.76786 2.05371,-3.21429 2.77199,-3.21429 0.76878,0 1.0885,15.13104 0.77727,36.78572 -0.524,36.45967 -1.86671,47.07526 -6.1304,48.46781 -0.79513,0.25969 -3.68799,-1.06452 -6.42857,-2.94271 z"
       id="path2709" />
  </g>
</svg>
